<svg xmlns="http://www.w3.org/2000/svg" xmlns:xlink="http://www.w3.org/1999/xlink" version="1.1" width="3162.213140521849" height="1268.6683973602194" viewBox="0 0 3162.213140521849 1268.6683973602194">
  <g transform="scale(8.110657026092424) translate(10, 10)">
    <defs id="SvgjsDefs1001"></defs>
    <g id="SvgjsG1007" featureKey="monogramFeature-0" transform="matrix(7.835379250197346,0,0,7.835379250197346,7.245370512640022,-20.28765585654937)" fill="#ffffff"><path d="M0.351563 6.035156 l4.785156 -0.00001 c1.601563 0 2.636719 0.563154 3.105469 1.689453 c0.201826 0.579424 0.302734 1.243486 0.302734 1.992188 l0 0.585938 c0 1.35417 -0.296221 2.386074 -0.888672 3.095713 l-1.015625 0 l0 0.517578 l1.552734 0 l0 3.339844 l-0.917969 0 l0 0.517578 l1.386719 0 l0 1.972656 l-2.910156 0 l0 -3.154297 l-1.123047 0 l0 -2.041016 l-1.953125 0 l0 3.457031 l0.419922 0 l0 1.992188 l-2.695312 0 c-0.032549 0 -0.048828 -0.016279 -0.048828 -0.048828 l0 -5.605469 l1.201172 0 l0 -0.400391 l-1.201172 0 l0 -7.910156 z M3.095703 8.310547 l0 3.945313 l0.664063 0 c0.996094 0 1.572266 -0.094404 1.728516 -0.283203 c0.162764 -0.10417 0.289717 -0.315762 0.380859 -0.634775 l1.035156 0 l0 -0.498047 l-0.9375 0 l0 0.048828 c-0.05208 0.299482 -0.091143 0.449219 -0.117187 0.449219 l-1.337891 0 l0 -0.498047 l1.40625 0 c0.032549 0 0.048828 -0.013018 0.048828 -0.039062 c0.013018 -0.403643 0.019531 -0.631504 0.019531 -0.683584 c0 -0.872393 -0.149736 -1.40625 -0.449219 -1.601562 c-0.234375 -0.136719 -0.664062 -0.205078 -1.289062 -0.205078 l-1.152344 0 z"></path></g>
    <g id="SvgjsG1008" featureKey="J3GnXt-0" transform="matrix(6.465306775521161,0,0,6.465306775521161,82.54312950540702,-2.3747997366744684)" fill="#00fffa"><path d="M4.56612 19.5175 l-0.002773 -0.002891 c0.000293 -0.000273 0.000586 -0.000566 0.000879 -0.00084 c0.000605 0.00123 0.00127 0.002461 0.001875 0.003711 l0 0 c0.00002 0 0.00002 0.00002 0.00002 0.00002 z M7.17712 10.62692 c0.046719 0.43293 0.005313 0.862734 0.019785 1.293614 c0.009004 0.268262 -0.031992 0.538984 -0.060977 0.80748 c-0.025098 0.232754 -0.009766 0.466582 -0.049668 0.699882 c-0.107051 0.6258 -0.157832 1.261074 -0.317852 1.878008 c-0.054902 0.21164 -0.096211 0.428984 -0.229922 0.610468 c-0.025762 0.03498 -0.010508 0.102637 -0.093945 0.098184 c-0.044688 -0.002363 -0.06166 0.089395 -0.048848 0.10582 c0.088652 0.11375 -0.010156 0.198906 -0.04832 0.277714 c-0.07998 0.165156 -0.126406 0.34123 -0.188789 0.51127 c-0.039082 0.106523 -0.089922 0.05957 -0.145781 0.048516 c0.060664 -0.145234 0.130527 -0.28504 0.159297 -0.444376 c0.023047 -0.127695 0.063594 -0.239648 -0.003574 -0.373458 c-0.041289 -0.082266 -0.03666 -0.200352 0.066133 -0.270684 c0.008711 0.035469 0.000137 0.088984 0.05582 0.081699 c0.036035 -0.004687 0.028809 -0.054609 0.034512 -0.08668 l-0.003418 0.003379 c-0.00002 -0.001133 0.000059 -0.002266 0.000039 -0.003398 l0.002188 0 c0.118516 -0.171543 0.139336 -0.37621 0.165566 -0.571036 c0.02623 -0.194844 0.079082 -0.379786 0.118125 -0.565586 c0.056543 -0.006309 0.04584 0.059297 0.090996 0.057344 c0.048711 -0.130664 0.084102 -0.26086 -0.042324 -0.375292 c-0.002246 -0.002031 0.013242 -0.023672 0.020449 -0.036133 l-0.000117 -0.000117 c-0.000195 -0.000215 -0.00252 -0.002422 -0.002461 -0.002422 c0.000059 0.00002 0.001426 0.001387 0.00209 0.002031 c-0.000645 -0.000645 -0.002031 -0.002012 -0.002031 -0.002012 c0.019453 0.00293 0.055176 0.010879 0.056035 0.008066 c0.040254 -0.130488 0.121367 -0.25877 0.031191 -0.399082 c0.066113 -0.035195 0.07668 -0.096484 0.078262 -0.164375 c0.005273 -0.22621 0.02625 -0.450566 0.072695 -0.672734 c0.022734 -0.10875 0.007832 -0.150254 -0.064844 -0.30455 c-0.059336 0.01668 -0.02166 0.09123 -0.068125 0.115039 c-0.045059 -0.104062 0.03709 -0.196895 0.026094 -0.298124 c-0.00002 -0.00002 0.00293 0.00291 0.00293 0.00291 c-0.103906 -0.119434 -0.048008 -0.284296 -0.126621 -0.439258 c-0.094805 0.225352 -0.026309 0.458692 -0.124355 0.685586 c-0.069805 -0.213204 0.000273 -0.420546 -0.065098 -0.614902 c-0.060332 0.189453 -0.071348 0.390078 -0.164863 0.597168 c-0.071914 -0.128594 -0.019941 -0.248222 -0.05752 -0.403086 c-0.126309 0.227656 -0.102793 0.444122 -0.157754 0.639238 c-0.05498 0.195156 -0.074883 0.400684 -0.0925 0.6058 c-0.017695 0.2058 -0.083887 0.407208 -0.080156 0.619102 c-0.014414 -0.000742 -0.028867 -0.001445 -0.043281 -0.002187 l0 -0.405722 c-0.01291 -0.00123 -0.02582 -0.002422 -0.03873 -0.003613 c-0.036445 0.180723 -0.072891 0.361426 -0.11457 0.568106 c-0.089629 -0.160254 -0.009355 -0.316094 -0.064766 -0.498458 c-0.140332 0.670312 -0.271152 1.295254 -0.401972 1.920176 c0.145137 -0.184609 0.125312 -0.432402 0.263964 -0.65209 c-0.063809 0.748398 -0.816328 3.0408 -1.579434 3.89386 c0.106777 -0.032871 0.192871 -0.107305 0.263496 -0.185996 c0.130703 -0.145645 0.254922 -0.299824 0.361622 -0.463632 c0.123145 -0.189023 0.220878 -0.394414 0.336602 -0.588554 c0.064453 -0.108164 0.113594 -0.221368 0.148711 -0.340878 c0.020215 -0.06873 0.056973 -0.07543 0.111133 -0.046016 c-0.032051 0.129121 -0.140762 0.250078 -0.044355 0.392832 c0.001777 -0.00293 0.003555 -0.00584 0.005234 -0.008789 c-0.000977 0.004199 -0.001934 0.008398 -0.00291 0.012598 l-0.002852 -0.002734 c-0.097051 0.051523 -0.163359 0.119121 -0.196074 0.234278 c-0.057559 0.202714 -0.219336 0.35541 -0.291836 0.553476 c-0.112402 0.049004 -0.123906 0.173906 -0.190977 0.257578 c-0.108652 0.135547 -0.206972 0.279376 -0.342148 0.464102 c0.222364 -0.034668 0.36373 -0.117656 0.488536 -0.236426 c0.001836 -0.043887 0.003691 -0.087773 0.005527 -0.13166 c0.074512 0 0.117441 -0.059824 0.174395 -0.092891 c0.004238 -0.040645 -0.011035 -0.09334 0.031074 -0.114941 c0.043691 -0.022422 0.077871 0.013438 0.104023 0.048828 c0.028301 0.038301 0.056641 0.076621 0.08498 0.114922 c0.001055 -0.000703 0.002148 -0.001367 0.003203 -0.002051 c-0.000215 0.001855 -0.000332 0.00377 -0.000586 0.005605 l-0.003398 -0.002949 c-0.064102 0.077852 -0.120176 0.166309 -0.215996 0.208496 c-0.084902 0.037383 -0.086855 0.12832 -0.136387 0.18752 l-0.08748 0.082969 c-0.016309 -0.032676 -0.037207 -0.065332 -0.078691 -0.051016 c-0.032871 0.011367 -0.072012 0.031836 -0.088242 0.059902 c-0.120469 0.208144 -0.32754 0.21875 -0.531562 0.247304 c-0.456132 0.063848 -0.91873 0.080059 -1.368672 0.190566 c-0.149375 0.036699 -0.302402 0.045996 -0.458106 0.035391 c-0.254122 -0.017305 -0.446524 -0.152637 -0.594454 -0.335214 c-0.202188 -0.249532 -0.349512 -0.534766 -0.48957 -0.827148 c-0.294434 -0.614668 -0.363458 -1.272792 -0.454414 -1.933242 c-0.115352 -0.8375 -0.1275 -1.676876 -0.117871 -2.51868 c0.000586 -0.05123 -0.002441 -0.103301 0.005273 -0.153574 c0.102148 -0.665644 0.058809 -1.341368 0.147734 -2.00954 c0.052012 -0.390918 0.091113 -0.782734 0.15457 -1.1733 c0.05625 -0.34625 0.11541 -0.692246 0.173105 -1.038458 c0.02543 -0.152676 0.059707 -0.300254 0.118203 -0.444102 c0.06625 -0.162852 0.11375 -0.33121 0.129473 -0.508926 c0.018457 -0.208536 0.104375 -0.393516 0.218378 -0.568262 c0.065762 -0.100781 0.14498 -0.13666 0.260214 -0.102773 c0.126484 0.037188 0.253984 0.071035 0.381464 0.104766 c0.180215 0.047676 0.225118 0.037754 0.296524 -0.125859 c0.084805 -0.194316 0.190527 -0.379708 0.269356 -0.574258 c0.174062 -0.429628 0.428458 -0.798984 0.766016 -1.109356 c0.341542 -0.314042 0.72791 -0.438516 1.189278 -0.261406 c0.48502 0.186191 0.979258 0.348204 1.468672 0.523086 c0.27875 0.09959 0.485332 0.285684 0.650528 0.530136 c0.210664 0.311758 0.293808 0.666602 0.366426 1.02455 c0.05668 0.279278 0.065781 0.569336 0.118555 0.845878 c0.082109 0.430372 0.034766 0.861016 0.080723 1.286738 z"></path></g>
  </g>
</svg>
