<svg xmlns="http://www.w3.org/2000/svg" xmlns:xlink="http://www.w3.org/1999/xlink" version="1.1" width="3162.064825930372" height="898.6507265443149" viewBox="0 0 3162.064825930372 898.6507265443149">
  <g transform="scale(8.103241296518608) translate(10, 10)">
    <defs id="SvgjsDefs16640"></defs>
    <g id="SvgjsG16641" featureKey="monogramFeature-0" transform="matrix(5.057072326153563,0,0,5.057072326153563,10.000004822799994,-10.241292606854305)" fill="#ffffff"><path d="M15.38 20 l-5.4 0 l-1.82 -3.14 l-3.5 0 l0 3.14 l-4.66 0 l0 -7.8 l11.44 0.02 c1.3 0 2.34 -1.06 2.34 -2.34 c0 -1.3 -1.04 -2.34 -2.34 -2.34 l-9.88 0 l0 1.56 l9.88 0 c0.42 0.02 0.74 0.36 0.74 0.78 s-0.32 0.76 -0.74 0.78 l-0.02 0 l-0.02 0 l-11.4 0 l0 -4.68 l11.44 0 c2.16 0 3.9 1.74 3.9 3.9 c0 2.14 -1.74 3.9 -3.9 3.9 l-9.88 -0.02 l0 4.68 l1.56 0 l0 -3.14 l5.94 0 c0.64 1.16 1.72 2.94 1.82 3.14 l1.8 0 c-0.16 -0.22 -1.08 -1.86 -1.82 -3.14 l1.8 0 c0.66 1.14 1.32 2.32 1.86 3.2 z"></path></g>
    <g id="SvgjsG16642" featureKey="J3GnXt-0" transform="matrix(3.443235904737666,0,0,3.443235904737666,94.76336051531729,11.131068818225899)" fill="#00fff8"><path d="M8.32 5.48 c2.10666 0 3.86336 0.69998 5.27002 2.09998 s2.11 3.18 2.11 5.34 c0 1.37334 -0.31334 2.63 -0.94 3.77 s-1.51 2.03666 -2.65 2.69 s-2.40334 0.98 -3.79 0.98 c-1.37334 0 -2.62668 -0.32334 -3.76002 -0.97 s-2.02 -1.54 -2.66 -2.68 s-0.96 -2.40334 -0.96 -3.79 c0 -2.10666 0.69 -3.87332 2.07 -5.29998 s3.15 -2.14 5.31 -2.14 z M2.98004 12.91998 c0 1.6 0.49998 2.94002 1.49998 4.02002 s2.28 1.62 3.84 1.62 c1.53334 0 2.80668 -0.53334 3.82002 -1.6 s1.52 -2.41332 1.52 -4.03998 c0 -1.61334 -0.5 -2.95668 -1.5 -4.03002 s-2.28666 -1.61 -3.86 -1.61 c-1.52 0 -2.78666 0.53334 -3.8 1.6 s-1.52 2.41332 -1.52 4.03998 z M18.74 5.84 l4.16 11.52 l0.04 0 l4.32 -11.52 l2.1 0 l-5.58 14.16 l-1.8 0 l-5.46 -14.16 l2.22 0 z M32.98 5.84 l0 14.16 l-1.92 0 l0 -14.16 l1.92 0 z M39.34 5.84 l4.5 10.72 l0.08 0 l4.46 -10.72 l2.86 0 l0 14.16 l-1.92 0 l0 -11.64 l-0.04 0 l-4.78 11.64 l-1.28 0 l-4.78 -11.64 l-0.04 0 l0 11.64 l-1.92 0 l0 -14.16 l2.86 0 z M60.92 5.84 l6.06 14.16 l-2.24 0 l-1.42 -3.5 l-6.74 0 l-1.4 3.5 l-2.24 0 l6.24 -14.16 l1.74 0 z M57.26 14.82 l5.36 0 l-2.64 -6.5 l-0.04 0 z M69.8 5.84 l3.68 5.44 l3.64 -5.44 l2.4 0 l-4.72 6.7 l5.2 7.46 l-2.52 0 l-4.06 -6.14 l-4.08 6.14 l-2.38 0 l5.14 -7.44 l-4.76 -6.72 l2.46 0 z"></path></g>
  </g>
</svg>
