<svg xmlns="http://www.w3.org/2000/svg" xmlns:xlink="http://www.w3.org/1999/xlink" version="1.1" width="3162.064825930372" height="898.6507265443149" viewBox="0 0 3162.064825930372 898.6507265443149">
  <g transform="scale(8.103241296518608) translate(10, 10)">
    <defs id="SvgjsDefs16640"></defs>
    <g id="SvgjsG16641" featureKey="monogramFeature-0" transform="matrix(7.835379250197346,0,0,7.835379250197346,1.0,-12.0)" fill="#ffffff">
      <path d="M0.351563 6.035156 l4.785156 -0.00001 c1.601563 0 2.636719 0.563154 3.105469 1.689453 c0.201826 0.579424 0.302734 1.243486 0.302734 1.992188 l0 0.585938 c0 1.35417 -0.296221 2.386074 -0.888672 3.095713 l-1.015625 0 l0 0.517578 l1.552734 0 l0 3.339844 l-0.917969 0 l0 0.517578 l1.386719 0 l0 1.972656 l-2.910156 0 l0 -3.154297 l-1.123047 0 l0 -2.041016 l-1.953125 0 l0 3.457031 l0.419922 0 l0 1.992188 l-2.695312 0 c-0.032549 0 -0.048828 -0.016279 -0.048828 -0.048828 l0 -5.605469 l1.201172 0 l0 -0.400391 l-1.201172 0 l0 -7.910156 z M3.095703 8.310547 l0 3.945313 l0.664063 0 c0.996094 0 1.572266 -0.094404 1.728516 -0.283203 c0.162764 -0.10417 0.289717 -0.315762 0.380859 -0.634775 l1.035156 0 l0 -0.498047 l-0.9375 0 l0 0.048828 c-0.05208 0.299482 -0.091143 0.449219 -0.117187 0.449219 l-1.337891 0 l0 -0.498047 l1.40625 0 c0.032549 0 0.048828 -0.013018 0.048828 -0.039062 c0.013018 -0.403643 0.019531 -0.631504 0.019531 -0.683584 c0 -0.872393 -0.149736 -1.40625 -0.449219 -1.601562 c-0.234375 -0.136719 -0.664062 -0.205078 -1.289062 -0.205078 l-1.152344 0 z"></path>
    </g>
    <g id="SvgjsG16642" featureKey="J3GnXt-0" transform="matrix(3.443235904737666,0,0,3.443235904737666,94.76336051531729,11.131068818225899)" fill="#00fff8">
      <path d="M8.32 5.48 c2.10666 0 3.86336 0.69998 5.27002 2.09998 s2.11 3.18 2.11 5.34 c0 1.37334 -0.31334 2.63 -0.94 3.77 s-1.51 2.03666 -2.65 2.69 s-2.40334 0.98 -3.79 0.98 c-1.37334 0 -2.62668 -0.32334 -3.76002 -0.97 s-2.02 -1.54 -2.66 -2.68 s-0.96 -2.40334 -0.96 -3.79 c0 -2.10666 0.69 -3.87332 2.07 -5.29998 s3.15 -2.14 5.31 -2.14 z M2.98004 12.91998 c0 1.6 0.49998 2.94002 1.49998 4.02002 s2.28 1.62 3.84 1.62 c1.53334 0 2.80668 -0.53334 3.82002 -1.6 s1.52 -2.41332 1.52 -4.03998 c0 -1.61334 -0.5 -2.95668 -1.5 -4.03002 s-2.28666 -1.61 -3.86 -1.61 c-1.52 0 -2.78666 0.53334 -3.8 1.6 s-1.52 2.41332 -1.52 4.03998 z M18.74 5.84 l4.16 11.52 l0.04 0 l4.32 -11.52 l2.1 0 l-5.58 14.16 l-1.8 0 l-5.46 -14.16 l2.22 0 z M32.98 5.84 l0 14.16 l-1.92 0 l0 -14.16 l1.92 0 z M39.34 5.84 l4.5 10.72 l0.08 0 l4.46 -10.72 l2.86 0 l0 14.16 l-1.92 0 l0 -11.64 l-0.04 0 l-4.78 11.64 l-1.28 0 l-4.78 -11.64 l-0.04 0 l0 11.64 l-1.92 0 l0 -14.16 l2.86 0 z M60.92 5.84 l6.06 14.16 l-2.24 0 l-1.42 -3.5 l-6.74 0 l-1.4 3.5 l-2.24 0 l6.24 -14.16 l1.74 0 z M57.26 14.82 l5.36 0 l-2.64 -6.5 l-0.04 0 z M69.8 5.84 l3.68 5.44 l3.64 -5.44 l2.4 0 l-4.72 6.7 l5.2 7.46 l-2.52 0 l-4.06 -6.14 l-4.08 6.14 l-2.38 0 l5.14 -7.44 l-4.76 -6.72 l2.46 0 z"></path>
    </g>
  </g>
</svg>
