<svg xmlns="http://www.w3.org/2000/svg" xmlns:xlink="http://www.w3.org/1999/xlink" version="1.1" width="3162.213140521849" height="1268.6683973602194" viewBox="0 0 3162.213140521849 1268.6683973602194">
  <g transform="scale(8.110657026092424) translate(10, 10)">
    <defs id="SvgjsDefs1001"></defs>
    <g id="SvgjsG1007" featureKey="monogramFeature-0" transform="matrix(7.835379250197346,0,0,7.835379250197346,7.245370512640022,-20.28765585654937)" fill="#ffffff"><path d="M0.351563 6.035156 l4.785156 -0.00001 c1.601563 0 2.636719 0.563154 3.105469 1.689453 c0.201826 0.579424 0.302734 1.243486 0.302734 1.992188 l0 0.585938 c0 1.35417 -0.296221 2.386074 -0.888672 3.095713 l-1.015625 0 l0 0.517578 l1.552734 0 l0 3.339844 l-0.917969 0 l0 0.517578 l1.386719 0 l0 1.972656 l-2.910156 0 l0 -3.154297 l-1.123047 0 l0 -2.041016 l-1.953125 0 l0 3.457031 l0.419922 0 l0 1.992188 l-2.695312 0 c-0.032549 0 -0.048828 -0.016279 -0.048828 -0.048828 l0 -5.605469 l1.201172 0 l0 -0.400391 l-1.201172 0 l0 -7.910156 z M3.095703 8.310547 l0 3.945313 l0.664063 0 c0.996094 0 1.572266 -0.094404 1.728516 -0.283203 c0.162764 -0.10417 0.289717 -0.315762 0.380859 -0.634775 l1.035156 0 l0 -0.498047 l-0.9375 0 l0 0.048828 c-0.05208 0.299482 -0.091143 0.449219 -0.117187 0.449219 l-1.337891 0 l0 -0.498047 l1.40625 0 c0.032549 0 0.048828 -0.013018 0.048828 -0.039062 c0.013018 -0.403643 0.019531 -0.631504 0.019531 -0.683584 c0 -0.872393 -0.149736 -1.40625 -0.449219 -1.601562 c-0.234375 -0.136719 -0.664062 -0.205078 -1.289062 -0.205078 l-1.152344 0 z M2.792969 14.667959 l0.117188 0 c0.065107 0.032549 0.097656 0.081377 0.097656 0.146484 c0.026045 0 0.055342 -0.048828 0.087891 -0.146484 l0.146484 0 l0 0.029297 l-0.146484 0.205078 c0 0.013018 0.055342 0.100908 0.166016 0.263672 l0 0.019531 l-0.117187 0 c-0.013018 0 -0.058594 -0.055342 -0.136719 -0.166016 c-0.045576 0.10417 -0.084639 0.159512 -0.117187 0.166025 l-0.117187 0 c0.10417 -0.162764 0.15625 -0.257168 0.15625 -0.283213 z M2.8125 15.371084 l0.429688 0 l0 0.078125 l-0.263672 0.322266 l0.263672 0 l0 0.117188 l-0.449219 0 l0 -0.087891 l0.253906 -0.332031 l-0.234375 0 l0 -0.097656 z"></path></g>
    <g id="SvgjsG1008" featureKey="J3GnXt-0" transform="matrix(6.465306775521161,0,0,6.465306775521161,82.54312950540702,-2.3747997366744684)" fill="#00fffa"><path d="M4.56612 19.5175 l-0.002773 -0.002891 c0.000293 -0.000273 0.000586 -0.000566 0.000879 -0.00084 c0.000605 0.00123 0.00127 0.002461 0.001875 0.003711 l0 0 c0.00002 0 0.00002 0.00002 0.00002 0.00002 z M7.17712 10.62692 c0.046719 0.43293 0.005313 0.862734 0.019785 1.293614 c0.009004 0.268262 -0.031992 0.538984 -0.060977 0.80748 c-0.025098 0.232754 -0.009766 0.466582 -0.049668 0.699882 c-0.107051 0.6258 -0.157832 1.261074 -0.317852 1.878008 c-0.054902 0.21164 -0.096211 0.428984 -0.229922 0.610468 c-0.025762 0.03498 -0.010508 0.102637 -0.093945 0.098184 c-0.044688 -0.002363 -0.06166 0.089395 -0.048848 0.10582 c0.088652 0.11375 -0.010156 0.198906 -0.04832 0.277714 c-0.07998 0.165156 -0.126406 0.34123 -0.188789 0.51127 c-0.039082 0.106523 -0.089922 0.05957 -0.145781 0.048516 c0.060664 -0.145234 0.130527 -0.28504 0.159297 -0.444376 c0.023047 -0.127695 0.063594 -0.239648 -0.003574 -0.373458 c-0.041289 -0.082266 -0.03666 -0.200352 0.066133 -0.270684 c0.008711 0.035469 0.000137 0.088984 0.05582 0.081699 c0.036035 -0.004687 0.028809 -0.054609 0.034512 -0.08668 l-0.003418 0.003379 c-0.00002 -0.001133 0.000059 -0.002266 0.000039 -0.003398 l0.002188 0 c0.118516 -0.171543 0.139336 -0.37621 0.165566 -0.571036 c0.02623 -0.194844 0.079082 -0.379786 0.118125 -0.565586 c0.056543 -0.006309 0.04584 0.059297 0.090996 0.057344 c0.048711 -0.130664 0.084102 -0.26086 -0.042324 -0.375292 c-0.002246 -0.002031 0.013242 -0.023672 0.020449 -0.036133 l-0.000117 -0.000117 c-0.000195 -0.000215 -0.00252 -0.002422 -0.002461 -0.002422 c0.000059 0.00002 0.001426 0.001387 0.00209 0.002031 c-0.000645 -0.000645 -0.002031 -0.002012 -0.002031 -0.002012 c0.019453 0.00293 0.055176 0.010879 0.056035 0.008066 c0.040254 -0.130488 0.121367 -0.25877 0.031191 -0.399082 c0.066113 -0.035195 0.07668 -0.096484 0.078262 -0.164375 c0.005273 -0.22621 0.02625 -0.450566 0.072695 -0.672734 c0.022734 -0.10875 0.007832 -0.150254 -0.064844 -0.30455 c-0.059336 0.01668 -0.02166 0.09123 -0.068125 0.115039 c-0.045059 -0.104062 0.03709 -0.196895 0.026094 -0.298124 c-0.00002 -0.00002 0.00293 0.00291 0.00293 0.00291 c-0.103906 -0.119434 -0.048008 -0.284296 -0.126621 -0.439258 c-0.094805 0.225352 -0.026309 0.458692 -0.124355 0.685586 c-0.069805 -0.213204 0.000273 -0.420546 -0.065098 -0.614902 c-0.060332 0.189453 -0.071348 0.390078 -0.164863 0.597168 c-0.071914 -0.128594 -0.019941 -0.248222 -0.05752 -0.403086 c-0.126309 0.227656 -0.102793 0.444122 -0.157754 0.639238 c-0.05498 0.195156 -0.074883 0.400684 -0.0925 0.6058 c-0.017695 0.2058 -0.083887 0.407208 -0.080156 0.619102 c-0.014414 -0.000742 -0.028867 -0.001445 -0.043281 -0.002187 l0 -0.405722 c-0.01291 -0.00123 -0.02582 -0.002422 -0.03873 -0.003613 c-0.036445 0.180723 -0.072891 0.361426 -0.11457 0.568106 c-0.089629 -0.160254 -0.009355 -0.316094 -0.064766 -0.498458 c-0.140332 0.670312 -0.271152 1.295254 -0.401972 1.920176 c0.145137 -0.184609 0.125312 -0.432402 0.263964 -0.65209 c-0.063809 0.748398 -0.816328 3.0408 -1.579434 3.89386 c0.106777 -0.032871 0.192871 -0.107305 0.263496 -0.185996 c0.130703 -0.145645 0.254922 -0.299824 0.361622 -0.463632 c0.123145 -0.189023 0.220878 -0.394414 0.336602 -0.588554 c0.064453 -0.108164 0.113594 -0.221368 0.148711 -0.340878 c0.020215 -0.06873 0.056973 -0.07543 0.111133 -0.046016 c-0.032051 0.129121 -0.140762 0.250078 -0.044355 0.392832 c0.001777 -0.00293 0.003555 -0.00584 0.005234 -0.008789 c-0.000977 0.004199 -0.001934 0.008398 -0.00291 0.012598 l-0.002852 -0.002734 c-0.097051 0.051523 -0.163359 0.119121 -0.196074 0.234278 c-0.057559 0.202714 -0.219336 0.35541 -0.291836 0.553476 c-0.112402 0.049004 -0.123906 0.173906 -0.190977 0.257578 c-0.108652 0.135547 -0.206972 0.279376 -0.342148 0.464102 c0.222364 -0.034668 0.36373 -0.117656 0.488536 -0.236426 c0.001836 -0.043887 0.003691 -0.087773 0.005527 -0.13166 c0.074512 0 0.117441 -0.059824 0.174395 -0.092891 c0.004238 -0.040645 -0.011035 -0.09334 0.031074 -0.114941 c0.043691 -0.022422 0.077871 0.013438 0.104023 0.048828 c0.028301 0.038301 0.056641 0.076621 0.08498 0.114922 c0.001055 -0.000703 0.002148 -0.001367 0.003203 -0.002051 c-0.000215 0.001855 -0.000332 0.00377 -0.000586 0.005605 l-0.003398 -0.002949 c-0.064102 0.077852 -0.120176 0.166309 -0.215996 0.208496 c-0.084902 0.037383 -0.086855 0.12832 -0.136387 0.18752 l-0.08748 0.082969 c-0.016309 -0.032676 -0.037207 -0.065332 -0.078691 -0.051016 c-0.032871 0.011367 -0.072012 0.031836 -0.088242 0.059902 c-0.120469 0.208144 -0.32754 0.21875 -0.531562 0.247304 c-0.456132 0.063848 -0.91873 0.080059 -1.368672 0.190566 c-0.149375 0.036699 -0.302402 0.045996 -0.458106 0.035391 c-0.254122 -0.017305 -0.446524 -0.152637 -0.594454 -0.335214 c-0.202188 -0.249532 -0.349512 -0.534766 -0.48957 -0.827148 c-0.294434 -0.614668 -0.363458 -1.272792 -0.454414 -1.933242 c-0.115352 -0.8375 -0.1275 -1.676876 -0.117871 -2.51868 c0.000586 -0.05123 -0.002441 -0.103301 0.005273 -0.153574 c0.102148 -0.665644 0.058809 -1.341368 0.147734 -2.00954 c0.052012 -0.390918 0.091113 -0.782734 0.15457 -1.1733 c0.05625 -0.34625 0.11541 -0.692246 0.173105 -1.038458 c0.02543 -0.152676 0.059707 -0.300254 0.118203 -0.444102 c0.06625 -0.162852 0.11375 -0.33121 0.129473 -0.508926 c0.018457 -0.208536 0.104375 -0.393516 0.218378 -0.568262 c0.065762 -0.100781 0.14498 -0.13666 0.260214 -0.102773 c0.126484 0.037188 0.253984 0.071035 0.381464 0.104766 c0.180215 0.047676 0.225118 0.037754 0.296524 -0.125859 c0.084805 -0.194316 0.190527 -0.379708 0.269356 -0.574258 c0.174062 -0.429628 0.428458 -0.798984 0.766016 -1.109356 c0.341542 -0.314042 0.72791 -0.438516 1.189278 -0.261406 c0.48502 0.186191 0.979258 0.348204 1.468672 0.523086 c0.27875 0.09959 0.485332 0.285684 0.650528 0.530136 c0.210664 0.311758 0.293808 0.666602 0.366426 1.02455 c0.05668 0.279278 0.065781 0.569336 0.118555 0.845878 c0.082109 0.430372 0.034766 0.861016 0.080723 1.286738 z M15.74582 5.5709 c0.09793 0.035742 0.147949 0.095938 0.140078 0.200722 c-0.006777 0.089297 -0.001914 0.181445 -0.022676 0.267364 c-0.194727 0.805762 -0.337188 1.62291 -0.499668 2.43476 c-0.158125 0.790136 -0.345312 1.574628 -0.483124 2.3695 c-0.094121 0.542714 -0.203066 1.084902 -0.35377 1.61627 c-0.05707 0.201308 -0.070879 0.409648 -0.11877 0.613516 c-0.09541 0.406016 -0.197422 0.810546 -0.29379 1.216368 c-0.099785 0.420352 -0.202714 0.839942 -0.306582 1.259296 c-0.015801 0.06375 -0.025938 0.132227 -0.077422 0.181719 c-0.025859 -0.04502 -0.051719 -0.09002 -0.078047 -0.134434 c-0.038184 0.039121 -0.077266 0.077812 -0.059277 0.141172 c-0.067168 0.061055 -0.077012 0.147363 -0.102578 0.228438 c-0.022285 0.070703 -0.003652 0.165801 -0.100723 0.199219 c-0.080957 0.051582 -0.121465 0.15252 -0.220664 0.180801 c0.023242 0.118125 -0.079199 0.08877 -0.135371 0.113672 c0.018828 0.062656 0.01873 0.12543 0.005254 0.201036 c-0.05668 -0.075195 0.014609 -0.138125 -0.005293 -0.20086 c-0.068008 -0.01582 -0.015449 -0.062559 -0.02043 -0.075547 c-0.060762 -0.157891 0.027402 -0.29914 0.040352 -0.446386 c0.018086 -0.205782 0.062969 -0.4092 0.054648 -0.617128 c0.003828 -0.486132 0.091016 -0.963984 0.145215 -1.445058 c0.011367 -0.100879 0.024023 -0.20039 0.002969 -0.302714 c-0.133047 0.25168 -0.243418 0.508614 -0.25871 0.795234 c-0.009512 0.177754 -0.054316 0.345996 -0.111719 0.532266 c-0.087676 -0.103906 0.01875 -0.183496 -0.009102 -0.271894 c-0.117188 0.011875 -0.087051 0.108926 -0.097812 0.175977 c-0.012012 0.074805 -0.010723 0.153594 -0.117812 0.14627 c0.00623 -0.063379 0.037637 -0.125508 0.012793 -0.193848 c-0.158945 0.166094 -0.411172 1.224024 -0.529942 2.21586 c0.094707 0.01002 0.093027 -0.068379 0.108066 -0.127168 c0.045215 -0.176641 0.088613 -0.35379 0.130371 -0.53129 c0.01709 -0.072676 0.042383 -0.139551 0.098027 -0.19127 c0.003633 -0.058809 0.119785 -0.06998 0.05873 -0.163594 c-0.035156 -0.053926 0.043047 -0.081816 0.083184 -0.133535 c0.037969 0.052344 0.051211 0.10084 0.044082 0.161484 c-0.035293 0.299882 -0.068027 0.599376 -0.074258 0.90254 c-0.00332 0.161406 -0.054258 0.322988 -0.092461 0.482382 c-0.130664 0.54504 -0.283106 1.08334 -0.500566 1.601622 c-0.036836 0.087773 -0.044648 0.19502 -0.081152 0.274472 c-0.091348 0.198789 -0.123184 0.453164 -0.416758 0.50543 c-0.157285 0.028008 -0.3083 0.100332 -0.456876 0.174062 c-0.288692 0.143223 -0.572128 0.060371 -0.778046 -0.19457 c-0.070918 -0.087812 -0.135039 -0.180137 -0.173203 -0.286328 c-0.120684 -0.336016 -0.288204 -0.65123 -0.375078 -1.004434 c-0.083145 -0.33793 -0.204668 -0.671524 -0.27461 -1.01123 c-0.117168 -0.56914 -0.28291 -1.128554 -0.349218 -1.708848 c-0.034688 -0.303378 -0.116914 -0.601484 -0.148574 -0.90498 c-0.051855 -0.497012 -0.188555 -0.980214 -0.220528 -1.480156 c-0.031504 -0.49254 -0.144609 -0.974688 -0.203848 -1.463906 c-0.042148 -0.348066 -0.080332 -0.696622 -0.122051 -1.044746 c-0.071875 -0.599726 -0.148926 -1.198868 -0.216876 -1.799024 c-0.099902 -0.88248 -0.195898 -1.765372 -0.349042 -2.64078 c-0.002559 -0.014707 -0.003789 -0.029648 -0.00543 -0.044512 c-0.041426 -0.373496 0.037695 -0.45793 0.400176 -0.33211 c0.402012 0.139531 0.78998 0.32 1.204804 0.421934 c0.127012 0.03123 0.166465 0.108867 0.195742 0.234238 c0.164688 0.705136 0.238926 1.426464 0.39955 2.13278 c0.112266 0.493692 0.182266 0.998554 0.25705 1.499122 c0.103555 0.693378 0.229376 1.38418 0.301758 2.08234 c0.04541 0.438144 0.09873 0.874824 0.205312 1.304122 c0.035586 0.14334 0.026562 0.297168 0.048457 0.444648 c0.09959 0.670292 0.201426 1.340274 0.306406 2.00974 c0.017363 0.110605 -0.032617 0.228672 0.036992 0.332558 c-0.137188 0.032852 -0.091289 0.138164 -0.067949 0.212188 c0.070195 0.2225 0.115996 0.450078 0.168887 0.676426 c0.011563 0.049492 -0.015859 0.080801 -0.017539 0.120566 c0.050234 0.024355 0.07334 0.060996 0.037012 0.113691 c-0.035879 0.052051 -0.04873 0.100957 -0.005195 0.153809 c-0.050059 0.050996 -0.020781 0.132402 -0.056797 0.195762 c-0.129707 -0.14582 -0.13127 -0.334258 -0.212304 -0.491778 c-0.05832 0.047441 -0.031797 0.093496 -0.026152 0.133887 c0.029512 0.210586 0.059258 0.42125 0.095586 0.630722 c0.010723 0.061914 -0.007539 0.078926 -0.058477 0.074863 l0.042852 0.152148 c-0.063145 0.094922 0.049668 0.13127 0.046621 0.234882 c0.137363 -0.131953 0.233106 -0.236132 0.14498 -0.402656 c0.162676 -0.120234 0.14623 -0.271132 0.078379 -0.43082 c0.09123 0.014648 0.12166 -0.049375 0.143809 -0.122461 c0.038984 -0.128594 0.083184 -0.256074 0.114082 -0.38666 c0.140781 -0.595078 0.304804 -1.18416 0.407442 -1.788926 c0.085996 -0.506718 0.212676 -1.006504 0.321446 -1.509356 c0.011074 -0.051133 0.030508 -0.10168 0.033164 -0.153184 c0.019473 -0.375566 0.169004 -0.725644 0.216796 -1.09332 c0.038691 -0.297618 0.131953 -0.580468 0.186484 -0.873458 c0.121387 -0.652246 0.254492 -1.302988 0.417636 -1.947266 c0.11166 -0.440958 0.201328 -0.887832 0.269864 -1.338496 c0.039336 -0.258594 0.143242 -0.501348 0.19084 -0.759786 c0.120332 -0.653438 0.243028 -1.306796 0.41836 -1.94877 c0.029336 -0.107402 0.037773 -0.220624 0.05377 -0.331484 c0.014961 -0.10375 0.03168 -0.206816 0.067949 -0.305762 c0.071836 -0.195879 0.09582 -0.215332 0.293086 -0.154141 c0.128594 0.039902 0.289532 0.024062 0.36504 0.177188 c0.010898 0.022148 0.030938 0.035664 0.052148 0.019141 c0.116055 -0.09043 0.214512 0.002871 0.313262 0.035508 c0.176934 0.058438 0.346992 0.137363 0.522266 0.20129 z M18.78216 18.029278 c0.009512 0.30752 0.023398 0.613672 0.005352 0.921426 c-0.009805 0.166914 -0.017559 0.33373 0.000918 0.503008 c0.018496 0.169551 -0.048164 0.26086 -0.217988 0.264804 c-0.178047 0.004141 -0.334414 0.136016 -0.517656 0.071309 c-0.080645 0.078633 -0.176484 0.107402 -0.28959 0.114707 c-0.100664 0.006504 -0.19668 0.011152 -0.298964 0.003887 c-0.114766 -0.008164 -0.218848 0.037383 -0.337774 -0.047676 c-0.08457 -0.060508 -0.08168 0.087012 -0.137949 0.139121 c-0.068105 -0.057793 -0.070918 -0.138125 -0.078906 -0.213828 c-0.01 -0.094512 -0.006797 -0.190918 -0.022832 -0.28418 c-0.009922 -0.057734 -0.045684 -0.040938 -0.07043 -0.001172 c-0.021562 -0.160137 -0.014922 -0.263536 0.022402 -0.38541 c-0.081543 -0.32123 -0.031016 -0.648418 -0.04627 -0.97252 c-0.008906 -0.189414 -0.025508 -0.378516 -0.039238 -0.567714 c-0.014785 -0.203848 -0.036855 -0.406368 -0.019785 -0.61248 c0.012461 -0.15043 -0.025859 -0.300938 -0.028398 -0.454472 c-0.006523 -0.394238 0.013652 -0.788242 -0.003164 -1.182774 c-0.015176 -0.35586 -0.05375 -0.713164 0.00332 -1.07004 c0.013711 -0.085645 0.013125 -0.176562 0.001152 -0.262558 c-0.011855 -0.085156 -0.004766 -0.156738 0.046523 -0.22789 c0.041992 -0.058242 0.083301 -0.123086 0.025957 -0.197988 c0.158789 -0.22625 0.077676 -0.507792 0.176914 -0.75664 c0.072656 0.031582 0.056699 0.09668 0.053984 0.148633 c-0.008809 0.168008 -0.035078 0.33582 -0.033828 0.503554 c0.004375 0.59121 0.017402 1.182382 0.037617 1.773926 c0.051973 -0.181641 0.024258 -0.37086 0.049746 -0.557128 c0.052578 0.012051 0.046562 0.05623 0.06582 0.082012 c0.084023 -0.343008 0.108887 -0.692852 0.121836 -1.044238 c0.003477 -0.09418 -0.010996 -0.196895 0.089766 -0.279746 c0.033438 0.091914 -0.038672 0.161895 0.007813 0.22916 c0.014902 0.029648 0.029785 0.059297 0.044688 0.089004 c0.105078 0.03043 0.073672 0.140508 0.11709 0.218848 c0.086191 -0.030723 0.035625 -0.13832 0.101914 -0.169062 c0.027012 0.381816 0.194453 0.745078 0.129844 1.141738 c0.060645 -0.014219 0.054492 -0.051074 0.053535 -0.074277 c-0.01959 -0.483028 0.047266 -0.96336 0.046426 -1.445292 c-0.000801 -0.475372 0.03168 -0.948536 0.060527 -1.422266 c0.02002 -0.329042 -0.052012 -0.652558 -0.063516 -0.980058 c-0.02418 -0.687598 -0.017656 -1.375292 -0.018164 -2.063 c-0.000078 -0.080469 -0.00127 -0.160957 -0.004277 -0.241348 c-0.001094 -0.029727 -0.010254 -0.061191 -0.046484 -0.064473 c-0.047344 -0.004297 -0.062812 0.031133 -0.066055 0.068945 c-0.00625 0.072578 -0.008164 0.145527 -0.020508 0.219942 c-0.033262 -0.232988 -0.005449 -0.479414 -0.161035 -0.726718 c-0.044902 0.237032 -0.034785 0.442812 -0.048652 0.692872 c-0.088809 -0.253926 -0.063535 -0.47418 -0.093594 -0.71836 c-0.075723 0.165371 -0.040996 0.337208 -0.150918 0.46711 c-0.069492 -0.051309 0.00459 -0.149531 -0.079766 -0.203262 c-0.056484 0.065801 -0.065918 0.14998 -0.078809 0.233378 c-0.03877 0.251192 -0.078496 0.502208 -0.117832 0.753282 c-0.038398 -0.001445 -0.078789 -0.00627 -0.083047 0.050273 c0.010957 0.016445 0.021934 0.032891 0.032891 0.049316 c-0.104941 0.06498 -0.116855 0.170059 -0.11959 0.28461 c-0.086289 -0.184824 -0.092617 -0.379258 -0.094746 -0.570372 c-0.004375 -0.394922 -0.025469 -0.790214 -0.018945 -1.184316 c0.008652 -0.524122 -0.053125 -1.05209 0.059434 -1.57252 c0.007715 -0.035684 0.008125 -0.073125 0.017422 -0.108301 c0.039004 -0.147637 0.083594 -0.186152 0.23418 -0.159688 c0.387988 0.068184 0.774472 0.144961 1.161192 0.220196 c0.136504 0.026543 0.27125 0.06248 0.408066 0.086934 c0.110195 0.019707 0.166328 0.079336 0.177676 0.189551 c0.044199 0.429492 0.109492 0.858144 0.041699 1.291328 c-0.006777 0.043164 -0.013008 0.088223 -0.008184 0.131152 c0.066191 0.591152 0.019043 1.184454 0.036855 1.776348 c0.017461 0.578868 0.002754 1.157422 0.001699 1.736074 c-0.001426 0.783554 0.008613 1.567032 0.003066 2.3507 c-0.00418 0.59248 -0.002695 1.186016 -0.003984 1.778848 c-0.000664 0.306016 0.043848 0.615 -0.019434 0.920292 c-0.004375 0.021152 -0.006641 0.044668 -0.002168 0.06543 c0.094141 0.436972 -0.003965 0.874922 0.009551 1.31168 z M28.88116 19.195664 c0.014063 0.121445 -0.03668 0.191836 -0.151934 0.230488 c-0.548066 0.183496 -1.095312 0.36959 -1.642286 0.556386 c-0.165254 0.056445 -0.24541 -0.029512 -0.301386 -0.167617 c-0.096172 -0.237324 -0.08041 -0.489668 -0.091289 -0.736172 c-0.023535 -0.532872 -0.03666 -1.066406 -0.041484 -1.599766 c-0.001348 -0.147188 0.041621 -0.294766 0.079648 -0.441484 c0.042168 0.21205 -0.022246 0.43543 0.114492 0.703946 c0.021074 -0.18959 0.048965 -0.31795 0.047051 -0.44584 c-0.006602 -0.443184 -0.018047 -0.886602 -0.050234 -1.328282 c-0.062188 -0.439512 -0.025156 -0.883808 -0.058398 -1.323184 c-0.032227 -0.425684 0.053496 -0.845254 0.01752 -1.268046 c-0.014004 -0.075566 0.010449 -0.163984 -0.09709 -0.235566 c-0.123379 0.397168 -0.251192 0.782344 -0.361836 1.172382 c-0.104062 0.366816 -0.232988 0.72379 -0.375566 1.0767 c-0.056719 0.140352 -0.161543 0.23832 -0.302656 0.254922 c-0.332422 0.039082 -0.663886 0.08873 -1.001758 0.082695 c-0.256328 -0.00459 -0.519394 -0.040312 -0.768926 0.054492 c-0.326778 0.124121 -0.43086 -0.127363 -0.50289 -0.335898 c-0.30791 -0.891386 -0.570292 -1.796406 -0.74123 -2.7264 c-0.056465 -0.307266 -0.144277 -0.608574 -0.118711 -0.925644 c-0.094277 -0.213652 0.007051 -0.44041 -0.04248 -0.65707 c-0.107285 0.015723 -0.054023 -0.045781 -0.043496 -0.086719 c0.073926 -0.141348 -0.051172 -0.261542 -0.042051 -0.395996 c0.053672 -0.053926 0.021523 -0.111133 0.0075 -0.167754 c-0.197441 0.179551 -0.109238 0.426446 -0.126367 0.637246 c-0.075215 0.924902 -0.144492 1.851602 -0.169941 2.7789 c-0.022812 0.831876 -0.065293 1.663204 -0.066855 2.4968 c-0.001289 0.683614 0.051348 1.371856 -0.039043 2.05508 c-0.03832 0.289786 0.067305 0.578516 -0.01207 0.874296 c-0.045938 0.171211 -0.129922 0.257382 -0.283848 0.223066 c-0.160879 -0.035879 -0.069414 -0.170527 -0.051719 -0.265372 c0.043242 -0.231914 0.015352 -0.457148 -0.095508 -0.681036 c0 0.264278 0.003223 0.528594 -0.001953 0.792734 c-0.001582 0.080352 0.023594 0.210058 -0.105723 0.19877 c-0.109434 -0.00959 -0.072383 -0.129102 -0.064258 -0.201796 c0.097461 -0.874062 -0.056777 -1.736562 -0.115684 -2.60336 c0 0.492188 -0.003672 0.984434 0.001191 1.476582 c0.003574 0.363028 0.111758 0.716954 0.087363 1.084804 c-0.017871 0.269786 -0.108145 0.417304 -0.40791 0.42127 c-0.17666 0.002324 -0.354882 0.071504 -0.527872 0.125156 c-0.26836 0.083242 -0.391894 -0.022891 -0.4017 -0.28791 c-0.025352 -0.685214 -0.065059 -1.37043 -0.067402 -2.05576 c-0.00293 -0.860196 0.020645 -1.720624 0.043262 -2.5807 c0.007695 -0.293574 -0.028379 -0.590546 0.046055 -0.880762 c-0.051055 -1.25418 0.114219 -2.4942 0.239864 -3.73714 c0.045605 -0.451348 0.045352 -0.90795 0.103691 -1.357246 c0.110781 -0.853066 0.222696 -1.707598 0.384492 -2.5519 c0.109395 -0.57082 0.359786 -0.549082 0.885762 -0.252324 c0.145156 0.081914 0.240118 0.229922 0.320898 0.37877 c0.01709 0.031562 0.034199 0.063145 0.051309 0.094707 c0.114688 0.349296 0.229376 0.698554 0.351718 1.071114 c0.156328 -0.221386 -0.170293 -0.440996 0.044277 -0.628458 c0.128574 0.09918 -0.033984 0.258086 0.105293 0.389532 c0.03752 -0.202618 0.205312 -0.365878 0.03041 -0.568184 c-0.067305 -0.076641 -0.089199 -0.198359 -0.21084 -0.220898 c0.163926 -0.03127 0.331954 -0.072656 0.370274 0.181328 c0.191211 -0.234492 0.308008 -0.236562 0.46795 -0.001406 c0.214628 0.315546 0.313046 0.684472 0.450118 1.035644 c0.186094 0.476758 0.364472 0.956368 0.485332 1.453984 c0.14293 0.588536 0.27129 1.180586 0.40754 1.770742 c0.081172 0.351582 0.16543 0.70246 0.275 1.054062 c0.072383 -0.168516 0.252988 -0.276934 0.2183 -0.481894 c0.074844 -0.187188 0.205938 -0.35002 0.235976 -0.557226 c0.009004 -0.061992 0.017832 -0.060723 0.112441 -0.058848 c0.029219 -0.073652 0.058438 -0.147305 0.087617 -0.220958 c0.061875 -0.055469 0.005 -0.232578 0.176328 -0.175918 c0.06084 0.34623 -0.110664 0.666504 -0.130234 1.010664 c0.360586 -0.255274 0.36664 -0.660976 0.4808 -1.01621 c0.041328 -0.128672 0.05875 -0.270136 0.228204 -0.295996 c-0.010215 0.160156 -0.131367 0.308808 -0.049629 0.478496 c0.000273 0.086074 0.000547 0.172168 0.000859 0.258282 c0.189414 -0.085879 0.184238 -0.290136 0.254394 -0.443594 c0.061582 -0.134688 0.074219 -0.291796 0.108457 -0.438984 c0.09582 -0.176387 0.14541 -0.366718 0.170078 -0.56459 c0.012813 -0.050664 0.025645 -0.101328 0.038457 -0.151992 c-0.012832 0.050664 -0.025645 0.101328 -0.038477 0.151992 c-0.026797 0.021836 -0.053613 0.043672 -0.08041 0.065527 c0.043066 -0.079277 -0.110391 -0.263672 0.124102 -0.240606 c0.02877 -0.014961 0.05752 -0.029902 0.086289 -0.044883 c0.116152 -0.221718 0.192461 -0.444902 0.061973 -0.692012 c-0.017559 -0.033223 0.016836 -0.093887 0.027168 -0.141855 c0.036719 -0.203672 0.075918 -0.406972 0.108359 -0.611328 c0.007676 -0.048301 0.017969 -0.082324 0.068145 -0.093594 c0.014668 0.026699 0.029355 0.026113 0.044062 0.000391 c0.077676 0.184629 -0.142598 0.357676 0.01209 0.592324 c0.198066 -0.547754 0.334218 -1.078046 0.471542 -1.608008 c-0.056543 -0.116543 -0.113086 -0.233086 -0.169609 -0.349628 c0.003438 -0.002617 0.006875 -0.005234 0.010313 -0.007832 c0.229316 0.178594 0.46459 -0.025879 0.693398 0.010059 c0.553672 0.086953 0.650468 0.228516 0.702226 0.882676 c0.062695 0.79246 0.089902 1.585684 0.096055 2.38014 c0.00875 1.13164 0.023262 2.26326 0.025996 3.39492 c0.002754 1.13959 -0.037441 2.28022 0.000332 3.41842 c0.03082 0.928692 -0.049043 1.859376 0.058145 2.78572 z M37.01092 20.069062 c0.015938 0.369942 -0.055137 0.44379 -0.42918 0.426074 c-0.276348 -0.013145 -0.550352 0.032051 -0.82334 0.017402 c-0.2325 -0.012461 -0.46793 -0.044199 -0.693204 -0.119883 c-0.06957 -0.023379 -0.086113 -0.075039 -0.095273 -0.133145 c-0.065957 -0.417968 -0.146504 -0.834238 -0.150859 -1.25959 c-0.137598 -0.296876 -0.050332 -0.622032 -0.114824 -0.924454 c-0.087168 -0.408926 -0.095312 -0.826836 -0.176133 -1.236114 c-0.044961 -0.227656 -0.047188 -0.464296 -0.060859 -0.697324 c-0.006875 -0.117109 -0.016797 -0.233066 -0.032891 -0.349296 c-0.016504 -0.119336 -0.07791 -0.161719 -0.193965 -0.151309 c-0.262286 0.023516 -0.525234 0.039824 -0.78746 0.064082 c-0.181719 0.016797 -0.362558 0.042832 -0.543964 0.063145 c-0.192559 0.021582 -0.246036 0.063047 -0.253828 0.260292 c-0.015234 0.385372 -0.112734 0.763184 -0.097988 1.150898 c0.004492 0.118242 -0.039219 0.231368 -0.064883 0.343496 c-0.065508 0.286152 -0.081406 0.57871 -0.121953 0.866934 c-0.040449 0.28746 -0.082305 0.578164 -0.082051 0.872774 c0.000273 0.32961 -0.062461 0.654376 -0.130098 0.97705 c-0.025273 0.120488 -0.086328 0.173633 -0.215 0.159805 c-0.137676 -0.014785 -0.277128 -0.016895 -0.4158 -0.017246 c-0.117656 -0.000293 -0.180488 -0.105469 -0.293008 -0.131797 c-0.241348 -0.056484 -0.303184 -0.170137 -0.299394 -0.429708 c0.015996 -0.177227 0.060586 -0.357012 -0.047285 -0.523008 c0.119805 -0.226054 0.079375 -0.478886 0.11959 -0.719668 c-0.080879 0.097363 -0.086348 0.220098 -0.146289 0.335898 c-0.007187 -0.16418 -0.035234 -0.330546 -0.017969 -0.49207 c0.070195 -0.656856 0.060703 -1.31959 0.15168 -1.974454 c0.013223 -0.095312 -0.034609 -0.195918 0.057129 -0.287636 c0.045293 -0.045293 0.005664 -0.144785 -0.025566 -0.208906 c-0.057754 -0.118555 -0.025957 -0.20959 0.059004 -0.295488 c0.03582 -0.03623 0.0775 -0.070605 0.100996 -0.11416 c0.035586 -0.065977 0.062109 -0.081992 0.149375 -0.067227 c0.219296 0.037129 0.285958 -0.026738 0.3192 -0.248808 c0.012988 -0.086738 0.023613 -0.173906 0.032637 -0.261152 c0.007578 -0.073574 0.022031 -0.142852 0.083906 -0.191699 c0.017266 0.165762 -0.01041 0.328906 -0.028359 0.492714 c-0.007363 0.067305 -0.011543 0.13668 0.08457 0.144336 c0.096289 0.007676 0.178027 -0.050801 0.177324 -0.139844 c-0.001387 -0.178223 0.043789 -0.35004 0.059727 -0.525566 c0.028066 -0.058516 0.056113 -0.117012 0.08416 -0.175508 c-0.018574 -0.030488 -0.04541 -0.06084 -0.026621 -0.099316 c0.010566 -0.021602 0.034746 -0.020938 0.057266 -0.016562 c0.051328 0.01002 0.074004 0.041855 0.073906 0.092793 c-0.000215 0.121934 -0.000059 0.243868 -0.000059 0.366758 c0.05459 -0.03418 0.041387 -0.09793 0.048418 -0.150293 c0.128164 -0.954336 0.280976 -1.90459 0.463106 -2.8502 c0.050879 -0.264082 0.093711 -0.529726 0.137207 -0.795136 c0.036699 -0.223848 0.005918 -0.450704 0.036426 -0.676992 c0.045977 -0.3408 0.115352 -0.676114 0.183535 -1.012266 c0.015762 -0.077832 0.04459 -0.155742 0.022891 -0.237696 c0.043027 -0.166133 0.086055 -0.332286 0.131328 -0.50707 c-0.15666 0.06082 -0.15666 0.06082 -0.265722 -0.100469 c-0.114082 0.215372 -0.146992 0.455782 -0.238398 0.6792 c-0.01918 -0.119785 0.03291 -0.241758 -0.047656 -0.37043 c-0.098301 0.14 -0.095703 0.324316 -0.211074 0.439942 c-0.070371 -0.02 -0.028379 -0.106641 -0.101777 -0.122109 c-0.086172 0.134609 -0.111758 0.295528 -0.155254 0.446406 c-0.05248 0.18209 -0.104668 0.364356 -0.156875 0.546622 c-0.020723 0.072383 -0.038047 0.143242 -0.097441 0.19084 c-0.049668 0.039766 -0.057246 0.071641 -0.013691 0.121562 c0.019121 0.021895 0.010547 0.069375 -0.017734 0.075957 c-0.166836 0.03875 -0.138633 0.179551 -0.15252 0.291954 c-0.02 0.161895 -0.087266 0.308242 -0.133223 0.465254 c-0.055898 -0.005117 -0.014023 -0.08459 -0.065215 -0.088223 c-0.046719 -0.00332 -0.066035 0.033223 -0.072266 0.068691 c-0.067812 0.386386 -0.209004 0.759648 -0.20832 1.15832 c-0.000664 0.059141 -0.001309 0.118301 -0.001973 0.177441 c-0.04373 0.032539 -0.036836 0.088984 -0.05916 0.131816 c0.231172 0.106816 0.062598 0.276856 0.050332 0.406348 c-0.028496 0.300624 -0.054922 0.604766 -0.153926 0.89459 c0.056523 0.07291 -0.001406 0.13332 -0.024512 0.196016 c-0.009727 0.026445 -0.03748 0.045508 -0.067812 0.026484 c-0.026738 -0.016777 -0.033613 -0.049199 -0.020488 -0.075039 c0.018848 -0.037051 0.046562 -0.069609 0.070488 -0.104102 c-0.075801 -0.145098 -0.059492 -0.290742 -0.002344 -0.43668 c-0.048945 -0.197559 -0.016719 -0.390918 0.044023 -0.57834 c0.039043 -0.120488 0.047773 -0.2358 0.026504 -0.34834 c-0.063477 -0.031504 -0.081562 0.048555 -0.144844 0.021328 c0.060664 -0.442578 0.086191 -0.892208 0.157793 -1.338906 c0.060137 -0.375196 0.185195 -0.733886 0.235528 -1.112304 c0.036855 -0.277148 0.147344 -0.545958 0.233886 -0.816192 c0.06625 -0.206914 0.108906 -0.424316 0.135234 -0.640332 c0.035352 -0.290058 0.081445 -0.575722 0.142871 -0.862266 c0.073438 -0.342402 0.139863 -0.687032 0.23332 -1.024004 c0.148555 -0.535684 0.318398 -1.064024 0.570566 -1.564394 c0.123203 -0.244414 0.31084 -0.284824 0.527304 -0.203984 c0.376816 0.140742 0.744296 0.306348 1.116328 0.46 c0.169199 0.069883 0.339316 0.137734 0.510176 0.203496 c0.181719 0.069941 0.300332 0.188281 0.365958 0.379336 c0.059492 0.173184 0.116055 0.343418 0.14834 0.525 c0.040742 0.229122 0.13127 0.445722 0.167832 0.679414 c0.065488 0.418458 0.192109 0.828692 0.238574 1.248398 c0.052949 0.478242 0.158965 0.948418 0.187402 1.4308 c0.016621 0.282012 0.101289 0.559278 0.135273 0.843204 c0.039922 0.333516 0.110762 0.664122 0.118574 1.000704 c0.004336 0.185898 0.071543 0.357304 0.0875 0.540782 c0.052656 0.604922 0.119121 1.208652 0.183926 1.81246 c0.022578 0.210644 0.091953 0.415292 0.080859 0.630684 c-0.003633 0.070938 0.03166 0.125332 0.085312 0.170215 c0.082363 0.068887 0.082773 0.153008 0.026016 0.23377 c-0.037012 0.052656 -0.045488 0.104258 -0.040625 0.164766 c0.024648 0.30627 0.034824 0.614336 0.074043 0.918672 c0.06834 0.530292 0.093223 1.063144 0.124023 1.595958 c0.007578 0.131094 0.025137 0.261796 0.042441 0.39211 c0.079102 0.59545 0.099688 1.195078 0.125508 1.794042 z M44.2569 17.66488 c0.091328 0.166348 0.219376 0.320234 0.178848 0.531192 c-0.003906 0.038379 -0.02373 0.08957 -0.060566 0.063711 c-0.081895 -0.057441 -0.167227 -0.11127 -0.225938 -0.201464 c-0.35795 -0.549726 -0.69502 -1.112714 -0.959004 -1.712656 c-0.134258 -0.305058 -0.286992 -0.60164 -0.429218 -0.901718 c-0.111562 -0.235372 -0.217578 -0.472304 -0.31621 -0.712988 c-0.029863 -0.07291 -0.068984 -0.143359 -0.075527 -0.224376 c0.095 0.01959 0.113398 0.110762 0.142676 0.177012 c0.182266 0.41248 0.391758 0.81125 0.593184 1.21414 c0.025527 0.051035 0.052129 0.080859 0.103105 0.092227 c-0.025547 -0.183164 -0.161523 -0.32918 -0.175547 -0.51623 c0.044316 0.026621 0.066016 0.069746 0.089805 0.114355 c0.272968 0.512032 0.49207 1.051348 0.78584 1.552832 c0.060039 0.07502 0.120098 0.150039 0.180137 0.22504 c-0.001836 0.115723 -0.001328 0.114453 0.096621 0.152773 c0.069258 0.027109 0.063711 0.096406 0.080215 0.152891 z M43.41898 17.98056 c-0.024316 0.092012 0.079492 0.066113 0.10498 0.113438 c0.018867 0.035156 0.024805 0.068457 0.000879 0.101426 c-0.031113 0.042871 -0.063379 0.022461 -0.091348 -0.003984 c-0.052832 -0.04998 -0.108535 -0.098652 -0.134746 -0.169375 c-0.01166 -0.031484 -0.044121 -0.073379 -0.001934 -0.09668 c0.099141 -0.054746 0.054863 -0.0825 -0.015449 -0.105352 c-0.036758 -0.011953 -0.066387 -0.026445 -0.076855 -0.065879 c0.051992 -0.031074 0.071426 -0.072891 0.042012 -0.13084 c-0.000645 0.042773 -0.001289 0.085527 -0.001953 0.128301 c-0.028457 -0.018359 -0.05625 -0.037949 -0.085723 -0.054492 c-0.031484 -0.017695 -0.067832 -0.029531 -0.095605 0.00168 c-0.027363 0.030742 -0.004844 0.064199 0.006855 0.095684 c-0.078047 0.028672 -0.15207 0.05082 -0.17502 -0.069609 c-0.015957 -0.083672 -0.079707 -0.059668 -0.133477 -0.055566 c0.012246 0.025781 0.020664 0.054727 0.038223 0.076211 c0.127305 0.155898 0.020234 0.302246 -0.020293 0.44879 c-0.017559 0.063535 -0.072051 0.072949 -0.116562 0.019219 c-0.115664 -0.139629 -0.244316 -0.265136 -0.346602 -0.420156 c-0.214472 -0.325058 -0.376446 -0.676054 -0.56004 -1.016464 c-0.062422 -0.115762 -0.111562 -0.238594 -0.16334 -0.357208 c-0.068047 -0.155938 -0.176289 -0.281464 -0.256152 -0.451778 c-0.090781 0.108242 -0.132207 0.220546 -0.160645 0.334824 c-0.155098 0.623554 -0.35164 1.23504 -0.53205 1.85123 c-0.137461 0.469434 -0.2508 0.94625 -0.398144 1.412402 c-0.10418 0.32959 -0.132812 0.673554 -0.229492 1.003282 c-0.059395 0.20254 -0.073281 0.231622 -0.279864 0.23961 c-0.379902 0.014707 -0.76043 0.014688 -1.140722 0.015918 c-0.072559 0.000254 -0.147656 -0.02377 -0.217168 0.003359 c-0.124316 0.048555 -0.218184 -0.072734 -0.337618 -0.052793 c-0.032637 0.005449 -0.035195 -0.037402 -0.03791 -0.066836 c-0.019219 -0.208516 -0.077461 -0.42043 0.06752 -0.612128 c0.023672 -0.031289 -0.009238 -0.088945 0.050059 -0.121465 c0.141074 0.135234 -0.07502 0.289062 0.027988 0.434238 c0.10582 -0.104082 0.132949 -0.23002 0.128418 -0.368222 c0.015645 -0.030352 0.03127 -0.060742 0.046914 -0.091094 c0.044414 -0.093867 -0.015312 -0.18502 -0.005293 -0.280762 c0.037832 -0.361582 0.074668 -0.723144 0.160742 -1.077032 c0.039746 -0.163457 0.022871 -0.331562 0.069414 -0.496778 c0.062871 -0.223204 0.08793 -0.457032 0.129238 -0.68629 c0.009102 -0.050449 0.010039 -0.104258 0.028906 -0.150723 c0.135391 -0.333262 0.209746 -0.684824 0.302618 -1.02998 c0.104395 -0.388008 0.229376 -0.769414 0.340938 -1.15498 c0.073086 -0.252636 0.160723 -0.501114 0.244004 -0.750742 c0.10627 -0.318554 0.232754 -0.630878 0.292442 -0.963554 c0.001289 -0.007187 -0.000254 -0.015996 0.003359 -0.021543 c0.179121 -0.274376 0.043867 -0.532364 -0.042832 -0.79168 c-0.108555 -0.324648 -0.224708 -0.646308 -0.309804 -0.978984 c-0.043027 -0.168184 -0.135312 -0.323164 -0.187012 -0.489804 c-0.08625 -0.27793 -0.141895 -0.566074 -0.238886 -0.839824 c-0.205058 -0.57875 -0.350508 -1.175078 -0.533692 -1.760234 c-0.126133 -0.402872 -0.269492 -0.801406 -0.370156 -1.213418 c-0.047129 -0.192852 -0.120605 -0.392128 -0.371504 -0.438964 c-0.129258 -0.024121 -0.185547 -0.135938 -0.187773 -0.265644 c-0.001133 -0.065586 0.002539 -0.132344 0.013828 -0.196855 c0.036465 -0.208516 0.145312 -0.289102 0.342968 -0.214376 c0.560606 0.211954 1.120136 0.428614 1.649296 0.71375 c0.105273 0.056738 0.179121 0.145586 0.239844 0.24998 c0.282012 0.48504 0.4642 1.00377 0.566386 1.555704 c0.055605 0.300468 0.149727 0.59377 0.22414 0.890898 c0.018652 0.074492 0.063379 0.149473 0.014316 0.228204 c-0.001758 0.015195 -0.003516 0.03043 -0.005273 0.045664 c0.003027 0.003184 0.005977 0.006426 0.008926 0.009668 c-0.003594 -0.002031 -0.007207 -0.004062 -0.010801 -0.006094 c-0.014023 0.027891 -0.028086 0.055781 -0.042109 0.083672 c0.045742 0.084844 0.048066 0.191465 0.128242 0.259024 c-0.016543 0.023535 -0.051035 0.052402 -0.045977 0.069531 c0.051172 0.172891 0.048164 0.36625 0.184199 0.508204 c0.02752 0.11541 -0.017754 0.250546 0.094473 0.351738 c0.153262 -0.418614 0.310664 -0.82791 0.404708 -1.2583 c0.030996 -0.141758 0.085254 -0.27748 0.121797 -0.41873 c0.03916 -0.151406 0.032969 -0.300136 0.034238 -0.450468 c0.000488 -0.058047 -0.01625 -0.117227 0.005938 -0.173496 c0.142246 -0.360722 0.191445 -0.749434 0.334864 -1.109648 c0.02459 -0.061777 0.02209 -0.122598 0.019336 -0.196562 c-0.071035 0.05082 -0.042949 0.16082 -0.146465 0.166836 c-0.069453 -0.20709 0.008086 -0.400762 0.062285 -0.593652 c0.051621 -0.183789 0.135215 -0.356036 0.248594 -0.510664 c0.122402 -0.166914 0.19748 -0.195957 0.397286 -0.13293 c0.244394 0.07707 0.488614 0.157852 0.725136 0.25582 c0.236972 0.098164 0.477442 0.186094 0.716406 0.278476 c0.23709 0.091641 0.258184 0.188828 0.078613 0.379376 c-0.047891 0.050762 -0.074531 0.106738 -0.100078 0.16668 c-0.178027 0.41793 -0.331192 0.844122 -0.460352 1.280292 c-0.153359 0.51791 -0.307792 1.036934 -0.496876 1.542344 c-0.141309 0.377792 -0.213028 0.774062 -0.353946 1.150118 c-0.161777 0.4317 -0.206308 0.898808 -0.399024 1.321094 c-0.030234 0.06625 -0.006152 0.127773 0.00793 0.192324 c0.055977 0.256426 0.18123 0.489336 0.248594 0.741796 c-0.101914 -0.042363 -0.135508 -0.135469 -0.167754 -0.22959 c-0.034492 -0.100684 -0.069492 -0.201094 -0.151816 -0.30957 c-0.080527 0.213946 -0.08416 0.399902 0.004434 0.585312 c-0.08377 -0.108652 -0.11041 -0.046738 -0.12916 0.041895 c-0.073203 0.122754 -0.13125 0.250566 -0.133164 0.397208 c-0.033535 0.052305 -0.05209 0.112578 -0.017266 0.165176 c0.110176 0.166348 0.126074 0.37332 0.237792 0.537988 c0.084043 0.123887 0.102793 0.272286 0.139414 0.410546 c0.039414 0.14873 0.143672 0.265468 0.172305 0.418398 c0.011367 0.060625 0.082754 0.096152 0.171094 0.06293 c-0.041289 -0.15166 -0.168125 -0.278458 -0.131777 -0.448184 c-0.159082 -0.117129 -0.123809 -0.285586 -0.129531 -0.471308 c0.154785 0.10543 0.101367 0.273906 0.174121 0.385742 c0.000391 0.015156 0.000801 0.030312 0.001191 0.045469 c0.156523 0.022676 0.133457 0.168359 0.181582 0.265214 c0.015234 0.030547 0.030488 0.061094 0.045664 0.091602 c0.014473 0.028359 0.028945 0.056719 0.043438 0.085078 c0.029062 0.045098 0.058125 0.090176 0.087168 0.135273 c0.001777 0.015176 0.003594 0.030332 0.00543 0.045508 c0.062461 0.060547 0.081152 0.138125 0.086426 0.220918 l-0.042949 0.00375 c-0.087383 0.07625 -0.044023 0.110566 0.042773 0.130957 c-0.021582 0.075215 0.003711 0.148945 0.008066 0.223222 c0.134121 0.107676 0.16541 0.261406 0.181621 0.41961 c0.004883 0.047871 -0.00748 0.0975 -0.012305 0.146348 c-0.098691 0.010098 -0.123203 0.060254 -0.071035 0.144688 c0.017773 0.028789 0.045977 0.051133 0.070078 0.076016 c0.037715 0.114824 0.049531 0.244708 0.17832 0.306622 c0.014004 -0.014023 0.028027 -0.028027 0.042031 -0.042031 c-0.014297 -0.029863 -0.028594 -0.059707 -0.042891 -0.089551 c-0.000254 -0.02916 -0.000469 -0.05832 -0.000723 -0.08748 l0.043164 0 c0.014355 0.014316 0.028672 0.028633 0.042988 0.042949 c0.015 0.029941 0.03 0.059863 0.045 0.089785 c-0.001816 0.062773 0.021289 0.118672 0.04752 0.173691 c0.014551 0.001543 0.029102 0.003105 0.043652 0.004648 c0.01584 0.01584 0.03166 0.03168 0.0475 0.04752 c-0.043516 0.070625 -0.043594 0.150391 -0.048379 0.22918 z"></path></g>
  </g>
</svg>
